<mxfile host="app.diagrams.net" agent="Mozilla/5.0 (Windows NT 10.0; Win64; x64) AppleWebKit/537.36 (KHTML, like Gecko) Chrome/132.0.0.0 Safari/537.36 Edg/132.0.0.0" version="26.0.8">
  <diagram name="Page-1" id="-bNcuJn93ghbTzAdAJ_A">
    <mxGraphModel dx="1453" dy="1134" grid="1" gridSize="10" guides="1" tooltips="1" connect="1" arrows="1" fold="1" page="0" pageScale="1" pageWidth="850" pageHeight="1100" math="0" shadow="0">
      <root>
        <mxCell id="0" />
        <mxCell id="1" parent="0" />
        <mxCell id="MkYHEdhnxGvyJe-b__Ch-2" value="" style="endArrow=classic;html=1;rounded=0;exitX=0.5;exitY=0;exitDx=0;exitDy=0;" parent="1" source="gVUOOdPV4nndgYVG7EFi-4" target="MkYHEdhnxGvyJe-b__Ch-3" edge="1">
          <mxGeometry width="50" height="50" relative="1" as="geometry">
            <mxPoint x="390" y="400" as="sourcePoint" />
            <mxPoint x="440" y="350" as="targetPoint" />
          </mxGeometry>
        </mxCell>
        <mxCell id="MkYHEdhnxGvyJe-b__Ch-3" value="register&lt;div&gt;&lt;br&gt;&lt;/div&gt;&lt;div&gt;POST newUser&lt;/div&gt;" style="whiteSpace=wrap;html=1;aspect=fixed;" parent="1" vertex="1">
          <mxGeometry x="510" y="-60" width="80" height="80" as="geometry" />
        </mxCell>
        <mxCell id="MkYHEdhnxGvyJe-b__Ch-4" value="" style="endArrow=classic;html=1;rounded=0;exitX=0.25;exitY=1;exitDx=0;exitDy=0;entryX=0.5;entryY=0;entryDx=0;entryDy=0;" parent="1" source="MkYHEdhnxGvyJe-b__Ch-3" target="MkYHEdhnxGvyJe-b__Ch-5" edge="1">
          <mxGeometry width="50" height="50" relative="1" as="geometry">
            <mxPoint x="390" y="400" as="sourcePoint" />
            <mxPoint x="480" y="160" as="targetPoint" />
          </mxGeometry>
        </mxCell>
        <mxCell id="MkYHEdhnxGvyJe-b__Ch-5" value="login" style="whiteSpace=wrap;html=1;aspect=fixed;" parent="1" vertex="1">
          <mxGeometry x="440" y="120" width="80" height="80" as="geometry" />
        </mxCell>
        <mxCell id="MkYHEdhnxGvyJe-b__Ch-6" value="" style="endArrow=classic;html=1;rounded=0;exitX=0.5;exitY=1;exitDx=0;exitDy=0;entryX=0.5;entryY=0;entryDx=0;entryDy=0;" parent="1" source="gVUOOdPV4nndgYVG7EFi-4" target="MkYHEdhnxGvyJe-b__Ch-7" edge="1">
          <mxGeometry width="50" height="50" relative="1" as="geometry">
            <mxPoint x="600" y="180" as="sourcePoint" />
            <mxPoint x="650" y="130" as="targetPoint" />
            <mxPoint as="offset" />
          </mxGeometry>
        </mxCell>
        <mxCell id="MkYHEdhnxGvyJe-b__Ch-7" value="customer-list" style="whiteSpace=wrap;html=1;aspect=fixed;" parent="1" vertex="1">
          <mxGeometry x="440" y="360" width="80" height="80" as="geometry" />
        </mxCell>
        <mxCell id="MkYHEdhnxGvyJe-b__Ch-8" value="customer-view" style="whiteSpace=wrap;html=1;aspect=fixed;" parent="1" vertex="1">
          <mxGeometry x="870" y="120" width="80" height="80" as="geometry" />
        </mxCell>
        <mxCell id="MkYHEdhnxGvyJe-b__Ch-9" value="" style="endArrow=classic;html=1;rounded=0;exitX=1;exitY=0.5;exitDx=0;exitDy=0;entryX=0;entryY=0.5;entryDx=0;entryDy=0;" parent="1" source="gVUOOdPV4nndgYVG7EFi-4" target="MkYHEdhnxGvyJe-b__Ch-8" edge="1">
          <mxGeometry width="50" height="50" relative="1" as="geometry">
            <mxPoint x="390" y="400" as="sourcePoint" />
            <mxPoint x="440" y="350" as="targetPoint" />
          </mxGeometry>
        </mxCell>
        <mxCell id="MkYHEdhnxGvyJe-b__Ch-12" value="" style="curved=1;endArrow=classic;html=1;rounded=0;exitX=0.5;exitY=0;exitDx=0;exitDy=0;entryX=0.5;entryY=0;entryDx=0;entryDy=0;" parent="1" source="gVUOOdPV4nndgYVG7EFi-4" target="MkYHEdhnxGvyJe-b__Ch-5" edge="1">
          <mxGeometry width="50" height="50" relative="1" as="geometry">
            <mxPoint x="200" y="220" as="sourcePoint" />
            <mxPoint x="440" y="220" as="targetPoint" />
            <Array as="points">
              <mxPoint x="560" y="40" />
            </Array>
          </mxGeometry>
        </mxCell>
        <mxCell id="gVUOOdPV4nndgYVG7EFi-1" value="edit-car" style="whiteSpace=wrap;html=1;aspect=fixed;" vertex="1" parent="1">
          <mxGeometry x="1000" y="440" width="80" height="80" as="geometry" />
        </mxCell>
        <mxCell id="gVUOOdPV4nndgYVG7EFi-2" value="edit-customer" style="whiteSpace=wrap;html=1;aspect=fixed;" vertex="1" parent="1">
          <mxGeometry x="280" y="360" width="80" height="80" as="geometry" />
        </mxCell>
        <mxCell id="gVUOOdPV4nndgYVG7EFi-3" value="error-page" style="whiteSpace=wrap;html=1;aspect=fixed;" vertex="1" parent="1">
          <mxGeometry x="280" width="80" height="80" as="geometry" />
        </mxCell>
        <mxCell id="gVUOOdPV4nndgYVG7EFi-4" value="&lt;span style=&quot;background-color: transparent; color: light-dark(rgb(0, 0, 0), rgb(255, 255, 255));&quot;&gt;homepage&lt;/span&gt;" style="whiteSpace=wrap;html=1;aspect=fixed;" vertex="1" parent="1">
          <mxGeometry x="600" y="120" width="80" height="80" as="geometry" />
        </mxCell>
        <mxCell id="gVUOOdPV4nndgYVG7EFi-5" value="new-car" style="whiteSpace=wrap;html=1;aspect=fixed;" vertex="1" parent="1">
          <mxGeometry x="1000" y="280" width="80" height="80" as="geometry" />
        </mxCell>
        <mxCell id="gVUOOdPV4nndgYVG7EFi-6" value="new-customer" style="whiteSpace=wrap;html=1;aspect=fixed;" vertex="1" parent="1">
          <mxGeometry x="440" y="520" width="80" height="80" as="geometry" />
        </mxCell>
        <mxCell id="gVUOOdPV4nndgYVG7EFi-7" value="select-car" style="whiteSpace=wrap;html=1;aspect=fixed;" vertex="1" parent="1">
          <mxGeometry x="600" y="360" width="80" height="80" as="geometry" />
        </mxCell>
        <mxCell id="gVUOOdPV4nndgYVG7EFi-8" value="view-car" style="whiteSpace=wrap;html=1;aspect=fixed;" vertex="1" parent="1">
          <mxGeometry x="800" y="360" width="80" height="80" as="geometry" />
        </mxCell>
        <mxCell id="gVUOOdPV4nndgYVG7EFi-9" value="" style="endArrow=classic;html=1;rounded=0;exitX=1;exitY=0.5;exitDx=0;exitDy=0;entryX=0;entryY=0.5;entryDx=0;entryDy=0;" edge="1" parent="1" source="MkYHEdhnxGvyJe-b__Ch-5" target="gVUOOdPV4nndgYVG7EFi-4">
          <mxGeometry width="50" height="50" relative="1" as="geometry">
            <mxPoint x="600" y="270" as="sourcePoint" />
            <mxPoint x="650" y="220" as="targetPoint" />
          </mxGeometry>
        </mxCell>
        <mxCell id="gVUOOdPV4nndgYVG7EFi-10" value="" style="endArrow=classic;html=1;rounded=0;exitX=0.5;exitY=1;exitDx=0;exitDy=0;entryX=0.5;entryY=0;entryDx=0;entryDy=0;" edge="1" parent="1" source="gVUOOdPV4nndgYVG7EFi-4" target="gVUOOdPV4nndgYVG7EFi-8">
          <mxGeometry width="50" height="50" relative="1" as="geometry">
            <mxPoint x="600" y="370" as="sourcePoint" />
            <mxPoint x="650" y="320" as="targetPoint" />
          </mxGeometry>
        </mxCell>
        <mxCell id="gVUOOdPV4nndgYVG7EFi-11" value="" style="endArrow=classic;html=1;rounded=0;exitX=1;exitY=0.5;exitDx=0;exitDy=0;entryX=0;entryY=0.5;entryDx=0;entryDy=0;" edge="1" parent="1" source="gVUOOdPV4nndgYVG7EFi-8" target="gVUOOdPV4nndgYVG7EFi-5">
          <mxGeometry width="50" height="50" relative="1" as="geometry">
            <mxPoint x="600" y="470" as="sourcePoint" />
            <mxPoint x="650" y="420" as="targetPoint" />
          </mxGeometry>
        </mxCell>
        <mxCell id="gVUOOdPV4nndgYVG7EFi-12" value="" style="endArrow=classic;html=1;rounded=0;exitX=1;exitY=0.5;exitDx=0;exitDy=0;entryX=0;entryY=0.5;entryDx=0;entryDy=0;" edge="1" parent="1" source="gVUOOdPV4nndgYVG7EFi-8" target="gVUOOdPV4nndgYVG7EFi-1">
          <mxGeometry width="50" height="50" relative="1" as="geometry">
            <mxPoint x="600" y="470" as="sourcePoint" />
            <mxPoint x="650" y="420" as="targetPoint" />
          </mxGeometry>
        </mxCell>
        <mxCell id="gVUOOdPV4nndgYVG7EFi-13" value="" style="curved=1;endArrow=classic;html=1;rounded=0;exitX=0.5;exitY=0;exitDx=0;exitDy=0;" edge="1" parent="1" source="gVUOOdPV4nndgYVG7EFi-5">
          <mxGeometry width="50" height="50" relative="1" as="geometry">
            <mxPoint x="600" y="470" as="sourcePoint" />
            <mxPoint x="840" y="360" as="targetPoint" />
            <Array as="points">
              <mxPoint x="930" y="250" />
            </Array>
          </mxGeometry>
        </mxCell>
        <mxCell id="gVUOOdPV4nndgYVG7EFi-14" value="" style="curved=1;endArrow=classic;html=1;rounded=0;exitX=0.5;exitY=1;exitDx=0;exitDy=0;entryX=0.5;entryY=1;entryDx=0;entryDy=0;" edge="1" parent="1" source="gVUOOdPV4nndgYVG7EFi-1" target="gVUOOdPV4nndgYVG7EFi-8">
          <mxGeometry width="50" height="50" relative="1" as="geometry">
            <mxPoint x="840" y="600" as="sourcePoint" />
            <mxPoint x="640" y="680" as="targetPoint" />
            <Array as="points">
              <mxPoint x="920" y="590" />
            </Array>
          </mxGeometry>
        </mxCell>
        <mxCell id="gVUOOdPV4nndgYVG7EFi-15" value="" style="curved=1;endArrow=classic;html=1;rounded=0;exitX=0;exitY=0.5;exitDx=0;exitDy=0;entryX=1;entryY=0.5;entryDx=0;entryDy=0;" edge="1" parent="1" source="MkYHEdhnxGvyJe-b__Ch-7" target="gVUOOdPV4nndgYVG7EFi-2">
          <mxGeometry width="50" height="50" relative="1" as="geometry">
            <mxPoint x="390" y="440" as="sourcePoint" />
            <mxPoint x="190" y="360" as="targetPoint" />
            <Array as="points">
              <mxPoint x="400" y="470" />
            </Array>
          </mxGeometry>
        </mxCell>
        <mxCell id="gVUOOdPV4nndgYVG7EFi-16" value="" style="curved=1;endArrow=classic;html=1;rounded=0;exitX=1;exitY=0.5;exitDx=0;exitDy=0;entryX=0;entryY=0.5;entryDx=0;entryDy=0;" edge="1" parent="1" source="gVUOOdPV4nndgYVG7EFi-2" target="MkYHEdhnxGvyJe-b__Ch-7">
          <mxGeometry width="50" height="50" relative="1" as="geometry">
            <mxPoint x="350" y="340" as="sourcePoint" />
            <mxPoint x="430" y="340" as="targetPoint" />
            <Array as="points">
              <mxPoint x="400" y="350" />
            </Array>
          </mxGeometry>
        </mxCell>
        <mxCell id="gVUOOdPV4nndgYVG7EFi-17" value="" style="curved=1;endArrow=classic;html=1;rounded=0;exitX=1;exitY=0.5;exitDx=0;exitDy=0;entryX=0;entryY=0.5;entryDx=0;entryDy=0;" edge="1" parent="1" source="MkYHEdhnxGvyJe-b__Ch-7" target="gVUOOdPV4nndgYVG7EFi-7">
          <mxGeometry width="50" height="50" relative="1" as="geometry">
            <mxPoint x="520" y="505" as="sourcePoint" />
            <mxPoint x="600" y="505" as="targetPoint" />
            <Array as="points">
              <mxPoint x="560" y="360" />
            </Array>
          </mxGeometry>
        </mxCell>
        <mxCell id="gVUOOdPV4nndgYVG7EFi-18" value="" style="curved=1;endArrow=classic;html=1;rounded=0;exitX=0;exitY=0.5;exitDx=0;exitDy=0;entryX=1;entryY=0.5;entryDx=0;entryDy=0;" edge="1" parent="1" source="gVUOOdPV4nndgYVG7EFi-7" target="MkYHEdhnxGvyJe-b__Ch-7">
          <mxGeometry width="50" height="50" relative="1" as="geometry">
            <mxPoint x="540" y="520" as="sourcePoint" />
            <mxPoint x="530" y="480" as="targetPoint" />
            <Array as="points">
              <mxPoint x="560" y="440" />
            </Array>
          </mxGeometry>
        </mxCell>
        <mxCell id="gVUOOdPV4nndgYVG7EFi-19" value="" style="curved=1;endArrow=classic;html=1;rounded=0;exitX=0.5;exitY=0;exitDx=0;exitDy=0;entryX=0.5;entryY=1;entryDx=0;entryDy=0;" edge="1" parent="1" source="gVUOOdPV4nndgYVG7EFi-6" target="MkYHEdhnxGvyJe-b__Ch-7">
          <mxGeometry width="50" height="50" relative="1" as="geometry">
            <mxPoint x="300" y="560" as="sourcePoint" />
            <mxPoint x="380" y="560" as="targetPoint" />
            <Array as="points">
              <mxPoint x="520" y="480" />
            </Array>
          </mxGeometry>
        </mxCell>
        <mxCell id="gVUOOdPV4nndgYVG7EFi-20" value="" style="curved=1;endArrow=classic;html=1;rounded=0;exitX=0.5;exitY=1;exitDx=0;exitDy=0;entryX=0.5;entryY=0;entryDx=0;entryDy=0;" edge="1" parent="1" source="MkYHEdhnxGvyJe-b__Ch-7" target="gVUOOdPV4nndgYVG7EFi-6">
          <mxGeometry width="50" height="50" relative="1" as="geometry">
            <mxPoint x="350" y="600" as="sourcePoint" />
            <mxPoint x="430" y="600" as="targetPoint" />
            <Array as="points">
              <mxPoint x="440" y="480" />
            </Array>
          </mxGeometry>
        </mxCell>
      </root>
    </mxGraphModel>
  </diagram>
</mxfile>
